<?xml version="1.0" encoding="utf-8"?>
<!-- Generator: Adobe Illustrator 21.0.0, SVG Export Plug-In . SVG Version: 6.00 Build 0)  -->
<svg version="1.1" id="Layer_1" xmlns="http://www.w3.org/2000/svg" xmlns:xlink="http://www.w3.org/1999/xlink" x="0px" y="0px"
	 viewBox="0 0 800 800" style="enable-background:new 0 0 800 800;" xml:space="preserve">
<style type="text/css">
	.st0{fill:url(#SVGID_1_);}
	.st1{fill:url(#SVGID_2_);}
	.st2{fill:url(#SVGID_3_);}
	.st3{fill:#FFFFFF;}
	.st4{fill:none;}
</style>
<g>
	<linearGradient id="SVGID_1_" gradientUnits="userSpaceOnUse" x1="406.297" y1="677.8248" x2="597.0374" y2="175.7046">
		<stop  offset="0" style="stop-color:#63038C"/>
		<stop  offset="0.5" style="stop-color:#020B40"/>
		<stop  offset="1" style="stop-color:#076DF2"/>
	</linearGradient>
	<path class="st0" d="M643.3,237c-2.1,3.2-4.9,5.8-8,7.3l-71,35.2c-6.7,3.3-12.1,12.1-12.1,19.5v92.5c0,7.4-5.4,16.2-12.1,19.5
		l-4.3,2.1c-6.7,3.3-17.5,8.7-24.2,12l-4.3,2.1c-6.7,3.3-12.1,12.1-12.1,19.5v211.7c0,3-0.9,6.3-2.4,9.3l-140.3-66.4
		c2,0.8,4.6,0.6,7.3-0.7c0.1,0,0.1-0.1,0.2-0.1l80.1-39.7c6.7-3.3,12.1-12.1,12.1-19.5V352.1c0-7.4,5.4-16.2,12.1-19.5l47.4-23.5
		c6.7-3.3,12.1-12.1,12.1-19.5V186.4c0-3.7-1.4-6.4-3.5-7.8L643.3,237z"/>
	<linearGradient id="SVGID_2_" gradientUnits="userSpaceOnUse" x1="152.5667" y1="400" x2="647.4333" y2="400">
		<stop  offset="0" style="stop-color:#63038C"/>
		<stop  offset="0.5" style="stop-color:#020B40"/>
		<stop  offset="1" style="stop-color:#076DF2"/>
	</linearGradient>
	<path class="st1" d="M647.4,125.1v99.7c0,4-1.6,8.4-4.1,12.2l-123.1-58.3c2.2,1.4,3.5,4.1,3.5,7.8v103.2c0,7.4-5.4,16.2-12.1,19.5
		l-47.4,23.5c-6.7,3.3-12.1,12.1-12.1,19.5v189.3c0,7.4-5.4,16.2-12.1,19.5L360,600.7c-0.1,0-0.1,0.1-0.2,0.1
		c-2.8,1.3-5.3,1.5-7.3,0.7l140.3,66.4c-2.2,4.4-5.7,8.3-9.7,10.2l-125.2,62.1c-6.7,3.3-12.1-0.1-12.1-7.5v-78
		c0-7.4-5.4-10.8-12.1-7.5L241.1,693c-6.7,3.3-12.1-0.1-12.1-7.5V578.9c0-7.4,5.4-16.2,12.1-19.5l23-11.4
		c6.7-3.3,12.1-12.1,12.1-19.5v-33.1c0-7.4-5.4-10.8-12.1-7.5l-99.5,49.4c-6.7,3.3-12.1-0.1-12.1-7.5V251.5
		c0-7.4,5.4-16.2,12.1-19.5l99.5-49.4c6.7-3.3,12.1,0.1,12.1,7.5v32.8c0,7.4,5.4,10.8,12.1,7.5l99.5-49.4
		c6.7-3.3,12.1-12.1,12.1-19.5v-32.8c0-7.4,5.4-16.2,12.1-19.5l99.5-49.4c6.7-3.3,12.1,0.1,12.1,7.5v92.1c0,7.4,5.4,10.8,12.1,7.5
		l99.5-49.4C642,114.3,647.4,117.6,647.4,125.1z"/>
	<linearGradient id="SVGID_3_" gradientUnits="userSpaceOnUse" x1="523.7264" y1="172.924" x2="523.7264" y2="172.924">
		<stop  offset="0" style="stop-color:#63038C"/>
		<stop  offset="0.5" style="stop-color:#020B40"/>
		<stop  offset="1" style="stop-color:#076DF2"/>
	</linearGradient>
	<path class="st2" d="M523.7,172.9"/>
	<path class="st3" d="M523.7,186.4v103.2c0,7.4-5.4,16.2-12.1,19.5l-47.4,23.5c-6.7,3.3-12.1,12.1-12.1,19.5v189.3
		c0,7.4-5.4,16.2-12.1,19.5L360,600.7c-0.1,0-0.1,0.1-0.2,0.1c-2.8,1.3-5.3,1.5-7.3,0.7l-0.8-0.4l-0.1,0c-2.3-1.3-3.8-4.1-3.8-7.9
		V403.9c0-7.4-5.4-10.8-12.1-7.5l-47.4,23.5c-6.7,3.3-12.1-0.1-12.1-7.5V309.2c0-7.4,5.4-16.2,12.1-19.5l223.2-110.7
		c0,0,0.1,0,0.1-0.1c3.3-1.6,6.3-1.5,8.4-0.2C522.4,180,523.7,182.7,523.7,186.4z"/>
	<polyline class="st4" points="352.5,601.4 351.7,601.1 351.7,601 	"/>
	<line class="st4" x1="520.2" y1="178.7" x2="519.9" y2="178.6"/>
</g>
</svg>
